<?xml version="1.0" encoding="UTF-8"?>
<svg id="Layer_2" data-name="Layer 2" xmlns="http://www.w3.org/2000/svg" viewBox="0 0 1080 1067.53">
  <defs>
    <style>
      .cls-1 {
        fill: none;
      }

      .cls-2 {
        fill: #eef0e0;
      }
    </style>
  </defs>
  <g id="Layer_1-2" data-name="Layer 1">
    <g>
      <path class="cls-1" d="m0,1067.53V0h1080v1067.53H0Zm123.75-240.37c.16-2.63.1-4.34.4-5.98,2.83-15.74,9.57-29.85,18.23-43.12,9.47-14.52,20.06-28.08,33.21-39.54,10.56-9.2,20.55-19.1,31.43-27.9,18.2-14.72,38.45-26.49,59.58-36.33,18.73-8.73,38.04-16.44,57.59-23.11,17.9-6.11,36.38-10.68,54.8-15.09,16.73-4.01,33.72-7,50.65-10.14,1.91-.36,4.54.77,6.22,2.03,3.2,2.4,5.77,5.63,8.94,8.07,5.29,4.07,6.39,6.17,4.68,12.73-1.92,7.4-3.95,14.79-6.31,22.06-5.37,16.55-10.31,33.29-16.63,49.48-9.14,23.41-18.84,46.64-29.28,69.51-6.95,15.22-14.09,30.44-23.77,44.33-8.15,11.69-14.88,24.37-23.1,36.01-7.37,10.44-15.6,20.33-23.99,30-10.38,11.97-23.2,21.2-36.62,29.4-10.87,6.64-22.54,11.81-35.44,13.31-4.62.54-9.28.81-14.29,1.24.53,1.12.87,2.08,1.39,2.92,5.73,9.29,12.17,17.86,20.75,24.9,14.11,11.59,30.49,17.36,48.25,18.9,11.97,1.04,24,.3,35.88-2.84,24.29-6.4,48.47-12.78,67.51-30.63,2.01-1.88,3.34-1.2,4.49,1.16,1.36,2.81,2.91,5.56,4.65,8.15,10.46,15.66,23.73,28.94,36.87,42.23,10.76,10.88,22.45,20.86,33.99,30.95,8.7,7.6,18.43,13.87,28.96,18.57,7.29,3.25,14.62,6,23.35,3.51,14.48-4.14,26.95-11.89,38.45-20.83,11.71-9.1,22.33-19.69,32.82-30.23,7.35-7.4,14.02-15.56,20.37-23.85,7.22-9.42,13.82-19.32,20.55-29.11,1.41-2.04,2.62-2.58,4.78-1.26,5.15,3.13,10.3,6.27,15.57,9.19,11.11,6.14,21.93,12.97,33.54,17.98,15.36,6.63,31.86,8.01,48.57,7.26,11.68-.52,22.73-3.29,33.36-7.94,14.98-6.54,26.47-17.19,35.51-30.64,1.63-2.43,3.24-4.87,5.09-7.64-2.11-.33-3.51-.52-4.91-.77-14.12-2.53-27.33-7.65-39.27-15.43-11.26-7.34-22.34-15.09-32.72-23.6-8.07-6.61-15.12-14.51-22.32-22.12-7.01-7.4-14.49-14.57-20.26-22.88-10.8-15.57-21.24-31.5-30.52-48.01-15.98-28.43-26-59.39-35.86-90.31-3.45-10.81-6.14-21.9-8.53-33-3.47-16.05-6.41-32.22-9.37-48.37-.27-1.5.59-3.58,1.6-4.87,2.5-3.18,5.24-6.23,8.19-9,2-1.88,4.43-4.31,6.84-4.52,4.47-.39,9.16.21,13.58,1.21,25.73,5.83,50.74,14.13,75.22,23.82,24.11,9.55,48,19.72,71.64,30.38,13.01,5.86,25.44,13.09,37.92,20.06,9.35,5.22,18.68,10.59,27.46,16.69,10.51,7.3,20.68,15.15,30.54,23.31,7.67,6.33,15.3,12.94,21.75,20.45,6.85,7.98,12.95,16.81,18.18,25.94,7.01,12.24,11.36,25.55,11.35,39.95,0,1.23.19,2.45.31,3.98,1.14-.31,1.84-.32,2.32-.66,7.05-4.94,14.97-9.06,20.89-15.11,9.23-9.43,16.73-20.37,20.44-33.47,3.96-13.97,6.51-28.09,3.93-42.54-2.76-15.41-6.08-30.77-13.34-44.84-5.09-9.87-10.62-19.52-16.16-29.14-1.52-2.64-3.83-4.84-5.94-7.43,1.08-.84,1.86-1.51,2.71-2.09,7.74-5.3,15.86-10.14,23.16-15.99,9.49-7.6,18.67-15.67,27.39-24.14,13.06-12.69,25.06-26.35,36.43-40.64,6.43-8.09,12.14-16.39,15.88-25.92,1.78-4.54,3.93-9.8,3.2-14.3-2.11-13.12-8.37-24.78-16.43-35.27-5.4-7.03-11.15-13.87-17.39-20.16-11.34-11.43-22.88-22.69-34.88-33.41-6.77-6.05-14.54-11.01-22.03-16.22-5.05-3.51-10.32-6.73-15.64-9.82-3.37-1.95-3.86-2.89-1.75-6.25,4.6-7.32,9.38-14.52,13.83-21.93,4.37-7.28,8.75-14.58,12.51-22.17,4.5-9.08,6.9-18.85,8.23-28.92,1.35-10.17,2.12-20.37.24-30.46-2.25-12.07-5.77-23.64-13.07-34.03-8.53-12.13-18.93-21.98-31.36-29.85-2.15-1.36-3.18-.97-3.55,1.82-.65,4.89-1.2,9.9-2.71,14.56-6.44,19.83-17.28,37.12-31.56,52.23-9.81,10.38-19.63,20.76-29.93,30.63-11.82,11.32-25.09,20.82-38.92,29.64-21.95,14.01-44.71,26.35-69.19,35.37-9.71,3.58-19.27,7.76-29.21,10.5-24.43,6.74-48.97,13.14-73.63,19.01-11.64,2.77-23.64,4.07-35.5,5.83-1.39.21-3.36-.49-4.41-1.47-4.18-3.89-8.22-7.94-12.03-12.18-1.08-1.2-1.96-3.38-1.67-4.87,1.54-8.07,2.85-16.26,5.39-24.04,6.19-18.99,12.43-37.99,19.71-56.57,8.59-21.95,17.63-43.77,27.7-65.08,11.91-25.21,23.96-50.47,41-72.84,7.84-10.3,15.24-20.98,23.65-30.78,13.16-15.34,27.4-29.5,45.81-38.91,11.43-5.84,22.98-10.71,35.83-12.06,3.44-.36,6.87-.76,10.36-1.15-.04-.69.08-1.15-.09-1.43-5.12-8.36-10.55-16.4-17.91-23.13-16.54-15.1-36.64-20.6-58.2-22.29-15.17-1.19-29.56,3.22-43.91,7.12-19.39,5.26-37.57,13.15-52.88,26.62-1.61,1.42-2.84,1.23-4.14-.7-3.48-5.17-6.88-10.43-10.84-15.22-8.33-10.08-16.6-20.27-25.64-29.71-9.61-10.03-19.87-19.47-30.23-28.74-11.83-10.58-24.83-19.57-39.06-26.79-10.12-5.13-19.88-4.79-30.18-.63-19.34,7.81-35.13,20.68-50,34.74-8.37,7.91-16.05,16.59-23.71,25.21-5.96,6.72-11.69,13.7-17.01,20.94-5.48,7.46-10.33,15.38-15.71,23.48-3.27-1.81-6.81-3.72-10.3-5.71-11.12-6.37-21.95-13.32-33.39-19.06-21.95-11.01-45.3-14.33-69.5-9.95-25.93,4.7-44.96,19.57-59.02,41.35-1.65,2.56-.75,3.88,2.03,4.31,13.4,2.04,25.77,6.89,37.31,13.89,16.61,10.08,32.5,21.03,46.21,35.01,12.96,13.22,25.54,26.72,36.11,41.93,8.12,11.68,16.43,23.33,23.34,35.73,14.15,25.37,24.91,52.24,33.38,80.07,7.62,25.02,13.93,50.33,18.85,76.01,1.11,5.82,2.74,11.55,3.79,17.38.49,2.74,2.4,5.65-.5,8.44-4.81,4.63-9.34,9.54-14.14,14.19-.88.86-2.6,1.62-3.7,1.37-24.16-5.41-48.01-12-71.11-20.93-21.99-8.49-43.92-17.22-65.45-26.81-18.79-8.37-37.21-17.67-55.36-27.36-11.06-5.9-21.62-12.87-31.82-20.17-12.32-8.82-24.5-17.94-35.85-27.95-11.08-9.77-20.69-21.11-28.29-33.94-7.4-12.51-12.88-25.71-14.23-40.37-.29-3.16-.82-6.29-1.26-9.59-2.12,1.25-3.95,2.25-5.69,3.38-8.03,5.17-16.1,10.23-22.08,18-15.42,20.04-21.87,42.56-19.1,67.66,2.24,20.36,8.62,39.49,17.12,58.06,4.1,8.97,10.37,16.27,16.34,23.85,1.86,2.36,1.71,3.87-.99,5.26-3.5,1.8-7.32,3.27-10.3,5.73-12.91,10.67-25.96,21.21-38.18,32.63-10.68,9.99-20.55,20.9-30.35,31.79-9.75,10.83-18.07,22.69-24.01,36.13-3.28,7.43-3.81,14.64-.92,22.41,5.99,16.11,15.34,30.1,26.66,42.75,7.67,8.57,15.97,16.61,24.42,24.43,7.57,7.01,15.39,13.85,23.7,19.94,9.68,7.11,19.99,13.37,30.07,19.91,2.49,1.62,3.44,2.94,1.39,5.89-5.52,7.94-11.23,15.83-15.81,24.32-5.64,10.45-11.05,21.18-15.01,32.34-4.99,14.03-6,28.78-4.23,43.73,1.14,9.6,3.61,18.71,7.52,27.49,5.36,12.03,13.32,22.06,23.75,30.07,5.03,3.86,10.32,7.38,16,11.41Z"/>
      <path class="cls-2" d="m123.75,827.16c-5.68-4.03-10.97-7.55-16-11.41-10.43-8.01-18.39-18.03-23.75-30.07-3.91-8.78-6.38-17.88-7.52-27.49-1.78-14.95-.76-29.7,4.23-43.73,3.96-11.16,9.38-21.89,15.01-32.34,4.58-8.48,10.29-16.38,15.81-24.32,2.05-2.95,1.1-4.28-1.39-5.89-10.09-6.54-20.39-12.8-30.07-19.91-8.31-6.1-16.13-12.93-23.7-19.94-8.44-7.82-16.75-15.87-24.42-24.43-11.32-12.65-20.67-26.64-26.66-42.75-2.89-7.78-2.37-14.98.92-22.41,5.94-13.44,14.27-25.31,24.01-36.13,9.8-10.89,19.66-21.79,30.35-31.79,12.21-11.43,25.27-21.97,38.18-32.63,2.98-2.46,6.8-3.92,10.3-5.73,2.7-1.39,2.85-2.9.99-5.26-5.98-7.58-12.24-14.88-16.34-23.85-8.49-18.57-14.87-37.7-17.12-58.06-2.76-25.1,3.69-47.62,19.1-67.66,5.98-7.78,14.05-12.83,22.08-18,1.74-1.12,3.57-2.12,5.69-3.38.44,3.29.96,6.43,1.26,9.59,1.36,14.66,6.83,27.85,14.23,40.37,7.59,12.83,17.2,24.17,28.29,33.94,11.35,10,23.53,19.13,35.85,27.95,10.2,7.3,20.77,14.27,31.82,20.17,18.15,9.69,36.57,18.99,55.36,27.36,21.53,9.59,43.46,18.31,65.45,26.81,23.1,8.92,46.95,15.51,71.11,20.93,1.1.25,2.82-.52,3.7-1.37,4.8-4.64,9.33-9.56,14.14-14.19,2.9-2.79.99-5.69.5-8.44-1.05-5.83-2.67-11.56-3.79-17.38-4.92-25.68-11.22-50.99-18.85-76.01-8.48-27.83-19.24-54.7-33.38-80.07-6.91-12.4-15.22-24.05-23.34-35.73-10.57-15.21-23.15-28.71-36.11-41.93-13.71-13.99-29.6-24.94-46.21-35.01-11.54-7-23.91-11.85-37.31-13.89-2.77-.42-3.68-1.75-2.03-4.31,14.07-21.78,33.09-36.65,59.02-41.35,24.2-4.39,47.55-1.06,69.5,9.95,11.44,5.74,22.27,12.68,33.39,19.06,3.49,2,7.03,3.9,10.3,5.71,5.38-8.11,10.24-16.02,15.71-23.48,5.32-7.24,11.05-14.22,17.01-20.94,7.66-8.63,15.34-17.3,23.71-25.21,14.87-14.06,30.66-26.93,50-34.74,10.29-4.16,20.06-4.5,30.18.63,14.24,7.22,27.23,16.2,39.06,26.79,10.36,9.27,20.62,18.71,30.23,28.74,9.04,9.43,17.31,19.62,25.64,29.71,3.96,4.79,7.36,10.06,10.84,15.22,1.3,1.93,2.53,2.11,4.14.7,15.31-13.47,33.49-21.36,52.88-26.62,14.36-3.9,28.74-8.31,43.91-7.12,21.56,1.69,41.66,7.19,58.2,22.29,7.37,6.73,12.79,14.77,17.91,23.13.17.28.06.74.09,1.43-3.49.39-6.92.79-10.36,1.15-12.85,1.35-24.41,6.22-35.83,12.06-18.41,9.41-32.65,23.57-45.81,38.91-8.41,9.81-15.81,20.49-23.65,30.78-17.04,22.38-29.09,47.63-41,72.84-10.06,21.3-19.1,43.13-27.7,65.08-7.28,18.58-13.52,37.59-19.71,56.57-2.53,7.78-3.85,15.97-5.39,24.04-.28,1.49.59,3.67,1.67,4.87,3.81,4.24,7.85,8.29,12.03,12.18,1.05.98,3.02,1.67,4.41,1.47,11.87-1.76,23.86-3.06,35.5-5.83,24.66-5.87,49.2-12.26,73.63-19.01,9.95-2.74,19.5-6.92,29.21-10.5,24.48-9.02,47.23-21.36,69.19-35.37,13.82-8.82,27.1-18.32,38.92-29.64,10.3-9.87,20.13-20.26,29.93-30.63,14.28-15.11,25.12-32.4,31.56-52.23,1.51-4.66,2.07-9.67,2.71-14.56.37-2.79,1.4-3.19,3.55-1.82,12.43,7.87,22.82,17.72,31.36,29.85,7.3,10.39,10.82,21.95,13.07,34.03,1.88,10.09,1.11,20.29-.24,30.46-1.34,10.07-3.74,19.85-8.23,28.92-3.76,7.59-8.15,14.9-12.51,22.17-4.45,7.41-9.23,14.61-13.83,21.93-2.11,3.36-1.61,4.3,1.75,6.25,5.33,3.08,10.59,6.31,15.64,9.82,7.49,5.21,15.26,10.17,22.03,16.22,12,10.72,23.54,21.99,34.88,33.41,6.24,6.29,11.99,13.13,17.39,20.16,8.06,10.49,14.32,22.14,16.43,35.27.72,4.5-1.42,9.76-3.2,14.3-3.74,9.53-9.44,17.83-15.88,25.92-11.36,14.29-23.37,27.95-36.43,40.64-8.72,8.47-17.9,16.54-27.39,24.14-7.3,5.85-15.42,10.69-23.16,15.99-.84.58-1.62,1.25-2.71,2.09,2.11,2.6,4.41,4.79,5.94,7.43,5.55,9.62,11.07,19.27,16.16,29.14,7.26,14.07,10.58,29.43,13.34,44.84,2.58,14.45.03,28.58-3.93,42.54-3.71,13.09-11.21,24.03-20.44,33.47-5.93,6.05-13.84,10.17-20.89,15.11-.48.34-1.19.35-2.32.66-.12-1.52-.31-2.75-.31-3.98.01-14.39-4.34-27.71-11.35-39.95-5.23-9.14-11.33-17.96-18.18-25.94-6.45-7.51-14.08-14.11-21.75-20.45-9.87-8.15-20.03-16.01-30.54-23.31-8.79-6.1-18.11-11.47-27.46-16.69-12.48-6.98-24.91-14.2-37.92-20.06-23.65-10.65-47.53-20.83-71.64-30.38-24.48-9.69-49.49-17.99-75.22-23.82-4.42-1-9.11-1.59-13.58-1.21-2.41.21-4.84,2.64-6.84,4.52-2.95,2.77-5.69,5.82-8.19,9-1.01,1.28-1.88,3.37-1.6,4.87,2.96,16.16,5.91,32.32,9.37,48.37,2.4,11.1,5.08,22.19,8.53,33,9.86,30.92,19.89,61.88,35.86,90.31,9.28,16.51,19.72,32.44,30.52,48.01,5.77,8.31,13.25,15.48,20.26,22.88,7.21,7.61,14.25,15.51,22.32,22.12,10.39,8.51,21.46,16.26,32.72,23.6,11.94,7.79,25.15,12.9,39.27,15.43,1.4.25,2.8.44,4.91.77-1.85,2.77-3.46,5.21-5.09,7.64-9.04,13.45-20.52,24.09-35.51,30.64-10.63,4.64-21.68,7.41-33.36,7.94-16.7.75-33.21-.63-48.57-7.26-11.6-5.01-22.43-11.84-33.54-17.98-5.27-2.91-10.42-6.05-15.57-9.19-2.16-1.31-3.37-.78-4.78,1.26-6.73,9.79-13.33,19.69-20.55,29.11-6.36,8.29-13.02,16.45-20.37,23.85-10.48,10.55-21.1,21.14-32.82,30.23-11.51,8.94-23.98,16.69-38.45,20.83-8.73,2.5-16.06-.26-23.35-3.51-10.54-4.7-20.27-10.97-28.96-18.57-11.53-10.09-23.23-20.07-33.99-30.95-13.14-13.28-26.41-26.57-36.87-42.23-1.73-2.6-3.28-5.34-4.65-8.15-1.15-2.36-2.48-3.04-4.49-1.16-19.04,17.86-43.23,24.23-67.51,30.63-11.88,3.13-23.91,3.87-35.88,2.84-17.76-1.54-34.13-7.31-48.25-18.9-8.58-7.04-15.02-15.62-20.75-24.9-.52-.84-.86-1.8-1.39-2.92,5.01-.43,9.66-.7,14.29-1.24,12.9-1.5,24.57-6.67,35.44-13.31,13.42-8.2,26.24-17.43,36.62-29.4,8.39-9.67,16.62-19.55,23.99-30,8.21-11.64,14.95-24.32,23.1-36.01,9.68-13.89,16.82-29.11,23.77-44.33,10.44-22.86,20.14-46.09,29.28-69.51,6.32-16.19,11.26-32.93,16.63-49.48,2.36-7.27,4.39-14.66,6.31-22.06,1.71-6.57.61-8.66-4.68-12.73-3.17-2.44-5.74-5.68-8.94-8.07-1.68-1.26-4.31-2.38-6.22-2.03-16.93,3.14-33.91,6.13-50.65,10.14-18.42,4.42-36.9,8.98-54.8,15.09-19.56,6.67-38.86,14.39-57.59,23.11-21.13,9.85-41.37,21.61-59.58,36.33-10.88,8.8-20.86,18.7-31.43,27.9-13.15,11.46-23.74,25.02-33.21,39.54-8.66,13.28-15.4,27.39-18.23,43.12-.3,1.65-.24,3.36-.4,5.98Zm292.5-293.28c.73,6.87,1.09,13.81,2.26,20.61,2.28,13.24,6.65,25.82,13.42,37.5,4.34,7.49,9.56,14.21,15.37,20.7,7.08,7.91,14.93,14.75,23.62,20.54,26.74,17.82,56.41,23.15,87.81,18.28,24.46-3.8,45.6-14.99,63.52-32.05,12.47-11.86,21.99-26.08,28.6-41.71,6.73-15.91,10.12-32.84,8.41-50.46-1.41-14.49-4.18-28.37-10.66-41.72-8.75-18.04-20.42-33.38-36.09-45.79-20.2-15.99-43.58-23.78-68.92-25.29-10.33-.61-21.02.42-31.2,2.44-28.94,5.73-52.22,21.63-70.49,44.12-17,20.93-25.21,45.6-25.66,72.85Zm196.97-117.51c.42-.63.73-.92.84-1.27,7.03-23.15,13.7-46.42,21.18-69.42,5.45-16.77,11.88-33.23,18.06-49.75,9.03-24.16,17.57-48.55,30.72-70.94,10.78-18.36,21.44-36.71,35.34-53.09,10.6-12.49,20.5-25.59,33.32-35.92,8.02-6.46,16.26-12.9,25.23-17.85,8.55-4.72,18.17-7.49,27.38-11.15-.68-.64-1.57-1.88-2.78-2.54-5.84-3.19-11.6-6.62-17.7-9.24-17.27-7.44-35.06-8.4-53.33-3.94-24.2,5.9-44.12,19.16-61.66,36.11-8.03,7.77-15.08,16.68-21.77,25.68-8.48,11.41-14.93,24.16-19.3,37.66-5.39,16.64-10.45,33.46-14.4,50.49-3.55,15.33-5.71,31.01-7.93,46.61-1.58,11.09-2.25,22.32-3.29,33.49-1.07,11.43-2.25,22.86-3.08,34.3-.76,10.43-1.02,20.9-1.66,31.35-.32,5.2-1.22,10.38-1.41,15.58-.07,2.08.43,5.19,1.82,6.11,4.44,2.97,9.41,5.14,14.42,7.74Zm-194.42,43.15c-.4-.42-.54-.72-.76-.78-15.47-4.38-31.09-8.29-46.39-13.2-23.93-7.67-47.71-15.85-71.45-24.09-22.8-7.92-45.21-16.86-66.7-27.9-9.54-4.9-18.83-10.41-27.79-16.3-13-8.54-26.02-17.17-38.26-26.74-9.36-7.32-17.78-15.92-26.16-24.4-8.49-8.6-15.75-18.32-21.05-29.19-4.02-8.24-6.94-17.02-10.34-25.52-2.61,3.45-6.06,7.21-8.6,11.51-10.5,17.76-13.07,36.92-9.05,57,2.18,10.93,6.32,21.01,12.03,30.75,10.33,17.63,22.92,33.19,38.62,46.16,17.08,14.12,36.87,23.42,57.57,30.89,20.61,7.43,41.86,12.33,63.51,15.44,19.74,2.83,39.51,5.52,59.32,7.78,11.67,1.33,23.46,1.69,35.19,2.47,4.57.31,9.14.57,13.71.87,11.74.76,23.47,1.57,35.22,2.23,1.17.07,3.05-.31,3.47-1.1,2.83-5.25,5.35-10.67,7.9-15.9Zm41.69-41.48c4.3-2.42,7.97-5.14,12.08-6.64,5.65-2.06,6.81-6.04,6.66-11.24-.32-11.53-.52-23.07-.82-34.6-.23-8.91-.28-17.82-.85-26.71-.82-12.76-1.68-25.53-3.16-38.22-1.72-14.74-3.64-29.49-6.32-44.08-5.23-28.48-12.84-56.23-26.93-81.89-9.83-17.9-21.17-34.48-36.37-48.35-9.7-8.86-19.91-16.88-31.39-23.3-20.89-11.7-42.68-18.22-66.92-13.09-13.73,2.91-24.95,10.17-36.34,19.38,2.37.72,4.03,1.12,5.61,1.72,22.57,8.59,42.17,21.81,59.62,38.35,15.14,14.35,29.49,29.47,42.41,45.83,17.51,22.18,29.95,47.3,40.63,73.33,10.83,26.39,18.91,53.71,26.82,81.04,4.85,16.77,8.05,34.01,11.88,51.06,1.27,5.65,2.23,11.38,3.39,17.41Zm508.76,379.83c1.99-3.12,3.24-5.22,4.63-7.22,13.36-19.21,17.26-40.31,12.58-63.09-5.04-24.55-18.32-44.59-35.03-62.57-9.11-9.8-19.41-18.18-31.05-25.08-13.26-7.87-27.01-14.49-41.45-19.78-19.23-7.04-39.17-11.27-59.25-14.86-10.52-1.88-21.1-3.46-31.71-4.75-11.14-1.36-22.33-2.24-33.5-3.27-11.57-1.07-23.13-2.23-34.71-3.06-10.44-.75-20.91-1.02-31.36-1.66-5.86-.35-11.7-1.13-17.56-1.46-1.68-.09-4.3.16-4.95,1.2-3.06,4.95-5.59,10.23-8.45,15.68,1.66.27,2.71.33,3.69.62,20.31,6.04,40.81,11.5,60.86,18.3,30.88,10.47,61.63,21.37,92.05,33.08,14.86,5.72,29.24,12.99,43.15,20.79,13.56,7.6,26.63,16.24,39.2,25.4,11.99,8.74,23.19,18.59,34.48,28.26,4.25,3.64,7.83,8.09,11.61,12.27,11.01,12.2,19.65,25.78,24.03,41.81.74,2.73,1.58,5.43,2.74,9.37Zm-696.99,157.41c.66.87.94,1.48,1.42,1.85,19.81,15.36,42.46,20.29,66.71,16.16,22.85-3.89,42.63-15.07,59.94-30.25,12.39-10.87,23.85-22.73,32.01-37.31,7.41-13.23,15.16-26.27,20.11-40.74,7.37-21.58,12.6-43.65,15.76-66.21,2.17-15.48,4.51-30.95,6.14-46.49,1.52-14.54,2.22-29.16,3.26-43.74.34-4.69.59-9.39.92-14.09.73-10.42,1.6-20.83,2.11-31.26.07-1.35-1.38-3.28-2.66-4.08-3.78-2.35-7.85-4.22-11.75-6.38-2.2-1.22-2.94-.8-3.74,1.75-6.15,19.69-12.31,39.38-18.88,58.93-6.84,20.36-13.79,40.69-21.32,60.8-5.96,15.93-12.43,31.71-19.43,47.21-8.85,19.59-20.41,37.68-33.04,55.05-13.8,18.98-28.15,37.47-46.24,52.72-14.93,12.58-31.47,21.93-51.33,26.08Zm346.22-307.08c-5.94,3.17-11.78,6.09-17.37,9.43-1.33.79-2.56,2.97-2.57,4.52-.03,6.8.47,13.6.64,20.4.32,12.71.5,25.43.83,38.15.12,4.7.36,9.41.84,14.09,1.47,14.26,2.8,28.54,4.74,42.74,1.87,13.67,3.75,27.4,6.89,40.82,3.48,14.86,7.78,29.59,12.81,44,6.25,17.93,14.35,34.97,26.33,50.11,8.8,11.12,17.73,21.88,28.82,30.85,12.37,10,25.13,19.13,40.19,24.84,13.52,5.13,27.21,7.76,41.75,6.37,17.35-1.65,32.05-8.71,45.14-20.34-.77-.43-1.28-.8-1.85-1.03-7.29-2.93-14.86-5.3-21.82-8.88-14.03-7.22-26.66-16.75-38.04-27.53-13.2-12.51-25.77-25.73-37.84-39.34-12.44-14.02-22.36-29.95-31.33-46.41-11.49-21.09-19.69-43.63-28.36-65.94-3.96-10.21-6.92-20.83-10.02-31.35-8.27-28.06-14.71-56.55-19.79-85.5Zm36.7-192.04c3.07,5.5,5.91,10.36,8.53,15.33,2.15,4.09,5.64,4.48,9.6,3.94,1.03-.14,2.06-.4,3.1-.42,13.25-.29,26.51-.42,39.76-.85,9.8-.32,19.61-.79,29.39-1.57,13.92-1.11,27.87-2.1,41.69-4.01,16.39-2.27,32.75-4.99,48.94-8.39,18.21-3.83,36.03-9.3,53.01-17,17.33-7.86,34.26-16.72,48.56-29.41,18.29-16.24,33.55-35.03,43.45-57.69,4.76-10.89,7.74-22.34,7.84-34.17.09-10.48-2.39-20.68-6.67-30.39-3.72-8.42-8.79-15.79-15.03-21.92-2.73,6.72-4.77,13.58-8.15,19.7-10.16,18.39-22.25,35.4-37.91,49.65-9.5,8.64-18.71,17.61-28.46,25.95-15.66,13.4-32.79,24.68-51.22,33.97-18.63,9.39-37.6,17.98-57.59,24.13-19.76,6.08-39.39,12.64-59.33,18.04-17.12,4.64-34.59,8-51.93,11.82-5.57,1.23-11.22,2.12-17.56,3.3Zm-233.67,155.61c-3.29-5.66-6.56-10.58-9.06-15.86-1.23-2.61-2.46-3.51-5.22-3.41-16.77.62-33.54,1.02-50.31,1.65-9.94.37-19.88.79-29.79,1.6-13,1.07-26.04,2.06-38.92,3.99-17.01,2.56-33.99,5.5-50.79,9.2-23.28,5.13-45.22,14.1-66.38,25.08-13.27,6.88-25.06,15.73-35.8,25.93-6.23,5.92-11.88,12.57-17.11,19.42-10.48,13.73-20.45,27.82-25.1,44.89-3.39,12.45-4.09,24.92-1.53,37.61,2.69,13.37,10.12,24.19,18.29,34.63.59.75,1.66,1.13,2.41,1.62,2.4-6.09,4.25-12.14,7.06-17.7,8.96-17.79,21.03-33.48,34.79-47.72,9.81-10.15,20.22-19.85,31.17-28.75,18.08-14.69,36.91-28.44,58.45-37.91,9.48-4.17,18.69-9.04,28.38-12.61,18.17-6.7,36.41-13.38,54.98-18.81,20.8-6.08,41.98-10.86,63.04-16,10.23-2.49,20.59-4.5,31.41-6.83ZM528.16,21.58c-5.16,3.95-9.5,7.06-13.6,10.44-11.08,9.15-22.54,17.91-32.93,27.8-8.68,8.27-16.53,17.54-23.88,27.05-7.33,9.48-13.61,19.77-20.28,29.74-1.96,2.94-2.3,5.82-.09,9.09,2.98,4.41,5.82,9,8.08,13.81,6.11,13.04,12.31,26.06,17.71,39.4,10.37,25.61,19.35,51.73,24.19,79,2.88,16.28,4.93,32.72,6.75,49.16,1.33,11.93,1.75,23.97,2.45,35.96.87,14.88,1.56,29.77,2.41,44.65.23,4.01.77,8,1.19,12.25,1.05-.12,1.94-.18,2.8-.33,6.55-1.16,13.07-2.45,19.64-3.46,5.53-.85,5.56-.71,5.56-6.19,0-120.95,0-241.9,0-362.84v-5.53Zm-27.81,646.52c-1.26,17.35-2.54,34.54-3.76,51.73-.84,11.86-1.44,23.73-2.4,35.58-.85,10.39-1.83,20.79-3.15,31.13-2.68,21.05-7.6,41.69-14.49,61.69-7.04,20.41-15.34,40.38-23.37,60.44-2.28,5.71-5.49,11.05-8.35,16.52-2.61,4.98-5.49,9.83-7.85,14.92-.58,1.24-.06,3.46.71,4.78,2.81,4.83,6.07,9.4,8.92,14.21,8.54,14.39,19.26,27.08,30.79,39.07,11.9,12.38,24.37,24.17,38.61,33.93,4.11,2.82,8.13,5.77,12.29,8.72v-368.69c-9.79-1.41-18.91-2.73-27.95-4.03Zm555.16-124.23h-376.96c-1.51,8.99-2.99,17.77-4.52,26.87,5.09.45,9.87.96,14.67,1.28,12.39.83,24.79,1.57,37.18,2.37,16.04,1.04,32.11,1.88,48.13,3.24,11.56.98,23.17,2.07,34.56,4.16,22.77,4.19,45.32,9.56,66.97,17.87,19.31,7.41,38.35,15.56,57.4,23.64,6.6,2.8,12.82,6.48,19.36,9.44,1.56.71,4.07.82,5.52.04,17.15-9.14,33.67-19.46,47.75-32.84,13.38-12.72,25.63-26.65,38.1-40.3,4.18-4.57,7.5-9.93,11.84-15.78Zm-480.31-144.17c.38-4.86.82-9.65,1.11-14.45.58-9.53.9-19.07,1.66-28.58,1.15-14.51,2.52-29.01,3.9-43.5,1.23-12.85,2.32-25.72,3.97-38.52,2.71-21.05,8.31-41.47,14.64-61.67,9.59-30.62,22.55-59.84,37.47-88.21,1.41-2.69,1.19-4.91-.1-7.34-11.7-21.89-26.69-41.45-44.44-58.59-12.57-12.13-26.78-22.56-40.28-33.71-1.1-.91-2.4-1.57-4.42-2.87v5.67c0,120.83,0,241.66,0,362.49,0,1.05-.3,2.25.1,3.12.46.99,1.45,2.28,2.38,2.44,7.82,1.35,15.68,2.46,24.03,3.72Zm99.1,96.8c.1,1.66.07,3.06.29,4.41.88,5.4,2.1,10.76,2.71,16.19.59,5.2,1.14,6.07,6.49,6,16.02-.22,32.04-.72,48.06-.74,96.05-.07,192.1-.04,288.16-.03,1.31,0,2.63.12,3.94.13,10.3.01,20.61,0,31.1,0-.35-.66-.68-1.49-1.18-2.2-12.81-18.52-28.05-34.92-44.26-50.44-5.19-4.97-10.56-9.89-16.48-13.91-10.91-7.41-22.34-14.06-33.45-21.18-2.66-1.71-4.9-1.73-7.69-.36-11.2,5.48-22.31,11.2-33.79,16.04-17.13,7.23-34.31,14.49-51.91,20.45-15.07,5.1-30.66,8.78-46.19,12.38-19.36,4.48-39.03,7.13-58.96,7.56-5.1.11-10.2.44-15.29.83-9.38.71-18.73,1.69-28.12,2.26-7.98.49-15.99.43-23.97.88-6.36.36-12.7,1.12-19.46,1.73ZM23.8,544.42c.74,1.36,1.06,2.22,1.61,2.89,3.61,4.45,7.29,8.84,10.89,13.3,10.73,13.24,22.25,25.69,34.78,37.31,14.81,13.73,31.28,24.88,48.97,34.38,2.52,1.35,5.09,1.77,7.84.15,3.73-2.19,7.53-4.31,11.46-6.1,12.16-5.56,24.28-11.2,36.62-16.34,20.8-8.66,41.95-16.3,63.86-21.78,23.35-5.84,46.87-10.31,70.97-11.53,14.08-.72,28.13-2.18,42.2-3.04,12.15-.74,24.32-1.04,36.48-1.65,4.27-.21,8.52-.76,12.85-1.15,0-.67.08-1.19-.01-1.68-1.2-6.27-2.76-12.49-3.54-18.81-.73-5.86-.4-5.94-6.14-5.94-121.39,0-242.79,0-364.18,0h-4.66Zm552.11,123.2c-7.27,1.31-14.16,2.7-21.1,3.76-5.31.81-5.36.62-5.34,6.01.25,58.47.65,116.93.72,175.4.04,34.54-.52,69.08-.68,103.62-.12,27.08-.04,54.16-.02,81.24,0,.94.27,1.87.54,3.72,9.37-7.63,17.9-14.94,26.81-21.76,14.27-10.91,26.35-23.98,37.81-37.64,9.7-11.55,18.02-24.12,24.53-37.76.75-1.57.66-4.13-.1-5.73-7.87-16.71-16.8-32.97-23.74-50.04-7.66-18.86-14.03-38.3-20.09-57.76-7.04-22.61-10.51-45.99-12.61-69.55-.93-10.46-1.66-20.93-2.42-31.4-1.08-14.98-2.09-29.96-3.13-44.94-.39-5.59-.78-11.18-1.19-17.17ZM22.48,523.78c2.46-.29,4.06-.62,5.67-.65,13.64-.3,27.29-.76,40.93-.77,104.17-.06,208.33-.04,312.5,0,1.94,0,3.88.5,5.83.55,2.87.07,5.8.22,8.6-.24,1.03-.17,2.33-1.87,2.57-3.06.95-4.72,1.47-9.51,2.25-14.27.51-3.13,1.18-6.24,1.81-9.47-6.72-.41-12.83-.83-18.96-1.16-10.71-.57-21.44-.93-32.14-1.65-13.42-.89-26.83-1.91-40.23-3.14-12.73-1.17-25.54-1.97-38.11-4.17-26.31-4.61-52.04-11.58-77.09-21.01-23.34-8.78-46.31-18.33-68.26-30.23-1.42-.77-3.8-1.25-5.08-.59-7.77,4.02-15.73,7.86-22.89,12.82-9.76,6.76-19.21,14.06-28.13,21.89-7.47,6.56-14.09,14.11-20.91,21.38-5.89,6.29-11.66,12.7-17.23,19.26-3.76,4.43-7.11,9.21-11.14,14.49Z"/>
      <path class="cls-1" d="m416.25,533.87c.45-27.25,8.66-51.92,25.66-72.85,18.27-22.49,41.55-38.39,70.49-44.12,10.18-2.02,20.87-3.05,31.2-2.44,25.34,1.51,48.72,9.3,68.92,25.29,15.67,12.41,27.34,27.75,36.09,45.79,6.48,13.36,9.26,27.23,10.66,41.72,1.71,17.62-1.68,34.55-8.41,50.46-6.62,15.63-16.14,29.85-28.6,41.71-17.92,17.06-39.06,28.25-63.52,32.05-31.39,4.87-61.07-.46-87.81-18.28-8.69-5.79-16.54-12.63-23.62-20.54-5.81-6.49-11.03-13.21-15.37-20.7-6.77-11.68-11.14-24.26-13.42-37.5-1.17-6.8-1.53-13.73-2.26-20.61Z"/>
      <path class="cls-1" d="m613.22,416.36c-5.01-2.6-9.98-4.77-14.42-7.74-1.39-.93-1.89-4.04-1.82-6.11.18-5.2,1.09-10.38,1.41-15.58.64-10.44.91-20.91,1.66-31.35.83-11.45,2.01-22.87,3.08-34.3,1.04-11.17,1.72-22.39,3.29-33.49,2.22-15.6,4.37-31.28,7.93-46.61,3.95-17.03,9-33.85,14.4-50.49,4.37-13.5,10.83-26.24,19.3-37.66,6.68-9,13.73-17.91,21.77-25.68,17.53-16.95,37.45-30.21,61.66-36.11,18.27-4.46,36.07-3.5,53.33,3.94,6.1,2.63,11.85,6.05,17.7,9.24,1.21.66,2.1,1.89,2.78,2.54-9.21,3.65-18.83,6.43-27.38,11.15-8.97,4.95-17.21,11.39-25.23,17.85-12.82,10.33-22.72,23.43-33.32,35.92-13.9,16.38-24.56,34.73-35.34,53.09-13.14,22.39-21.69,46.78-30.72,70.94-6.18,16.53-12.61,32.98-18.06,49.75-7.48,23-14.15,46.27-21.18,69.42-.11.35-.41.64-.84,1.27Z"/>
      <path class="cls-1" d="m418.8,459.51c-2.56,5.23-5.08,10.65-7.9,15.9-.42.78-2.3,1.16-3.47,1.1-11.74-.67-23.48-1.47-35.22-2.23-4.57-.3-9.14-.56-13.71-.87-11.74-.78-23.52-1.14-35.19-2.47-19.81-2.25-39.58-4.95-59.32-7.78-21.65-3.11-42.9-8.01-63.51-15.44-20.7-7.46-40.49-16.76-57.57-30.89-15.69-12.97-28.28-28.53-38.62-46.16-5.71-9.74-9.85-19.83-12.03-30.75-4.01-20.08-1.45-39.24,9.05-57,2.54-4.3,5.99-8.06,8.6-11.51,3.4,8.5,6.32,17.27,10.34,25.52,5.3,10.87,12.56,20.59,21.05,29.19,8.38,8.48,16.8,17.08,26.16,24.4,12.24,9.57,25.26,18.2,38.26,26.74,8.97,5.89,18.25,11.4,27.79,16.3,21.49,11.03,43.9,19.97,66.7,27.9,23.74,8.25,47.51,16.43,71.45,24.09,15.3,4.9,30.92,8.82,46.39,13.2.21.06.36.36.76.78Z"/>
      <path class="cls-1" d="m460.49,418.03c-1.17-6.03-2.12-11.75-3.39-17.41-3.84-17.05-7.03-34.3-11.88-51.06-7.91-27.33-15.99-54.65-26.82-81.04-10.68-26.03-23.12-51.15-40.63-73.33-12.91-16.35-27.27-31.48-42.41-45.83-17.45-16.54-37.05-29.76-59.62-38.35-1.58-.6-3.24-1-5.61-1.72,11.39-9.2,22.61-16.47,36.34-19.38,24.23-5.14,46.03,1.39,66.92,13.09,11.48,6.43,21.69,14.45,31.39,23.3,15.2,13.87,26.55,30.45,36.37,48.35,14.09,25.66,21.69,53.41,26.93,81.89,2.68,14.59,4.61,29.34,6.32,44.08,1.48,12.69,2.35,25.46,3.16,38.22.57,8.88.62,17.8.85,26.71.29,11.53.49,23.07.82,34.6.15,5.2-1.01,9.18-6.66,11.24-4.11,1.5-7.78,4.22-12.08,6.64Z"/>
      <path class="cls-1" d="m969.25,797.86c-1.16-3.95-1.99-6.65-2.74-9.37-4.37-16.03-13.01-29.61-24.03-41.81-3.78-4.18-7.36-8.63-11.61-12.27-11.29-9.67-22.49-19.52-34.48-28.26-12.57-9.16-25.64-17.8-39.2-25.4-13.91-7.8-28.29-15.07-43.15-20.79-30.42-11.71-61.18-22.61-92.05-33.08-20.05-6.8-40.55-12.26-60.86-18.3-.98-.29-2.03-.35-3.69-.62,2.87-5.45,5.39-10.73,8.45-15.68.65-1.05,3.28-1.3,4.95-1.2,5.86.33,11.7,1.1,17.56,1.46,10.45.63,20.92.91,31.36,1.66,11.58.83,23.15,1.99,34.71,3.06,11.17,1.03,22.37,1.91,33.5,3.27,10.61,1.29,21.19,2.87,31.71,4.75,20.08,3.59,40.02,7.82,59.25,14.86,14.44,5.29,28.19,11.92,41.45,19.78,11.64,6.9,21.94,15.28,31.05,25.08,16.71,17.98,29.99,38.02,35.03,62.57,4.68,22.78.78,43.88-12.58,63.09-1.39,2-2.64,4.1-4.63,7.22Z"/>
      <path class="cls-1" d="m272.26,955.27c19.86-4.15,36.4-13.5,51.33-26.08,18.09-15.24,32.44-33.74,46.24-52.72,12.63-17.37,24.19-35.46,33.04-55.05,7-15.5,13.47-31.28,19.43-47.21,7.52-20.11,14.48-40.44,21.32-60.8,6.56-19.55,12.73-39.24,18.88-58.93.8-2.55,1.53-2.97,3.74-1.75,3.9,2.16,7.98,4.03,11.75,6.38,1.28.8,2.73,2.74,2.66,4.08-.51,10.43-1.37,20.84-2.11,31.26-.33,4.69-.59,9.39-.92,14.09-1.04,14.59-1.74,29.21-3.26,43.74-1.63,15.54-3.98,31.01-6.14,46.49-3.16,22.56-8.39,44.63-15.76,66.21-4.95,14.47-12.69,27.51-20.11,40.74-8.16,14.57-19.62,26.44-32.01,37.31-17.31,15.18-37.09,26.35-59.94,30.25-24.25,4.13-46.9-.79-66.71-16.16-.48-.37-.76-.98-1.42-1.85Z"/>
      <path class="cls-1" d="m618.49,648.19c5.08,28.94,11.52,57.44,19.79,85.5,3.1,10.52,6.06,21.14,10.02,31.35,8.66,22.31,16.86,44.84,28.36,65.94,8.97,16.46,18.88,32.39,31.33,46.41,12.07,13.6,24.65,26.83,37.84,39.34,11.38,10.78,24.01,20.31,38.04,27.53,6.95,3.58,14.53,5.94,21.82,8.88.57.23,1.08.6,1.85,1.03-13.09,11.63-27.79,18.69-45.14,20.34-14.54,1.39-28.22-1.25-41.75-6.37-15.05-5.71-27.82-14.84-40.19-24.84-11.09-8.97-20.02-19.73-28.82-30.85-11.98-15.14-20.08-32.18-26.33-50.11-5.03-14.41-9.34-29.14-12.81-44-3.14-13.41-5.02-27.15-6.89-40.82-1.94-14.2-3.27-28.48-4.74-42.74-.48-4.68-.72-9.39-.84-14.09-.34-12.71-.51-25.43-.83-38.15-.17-6.8-.68-13.6-.64-20.4,0-1.55,1.24-3.73,2.57-4.52,5.59-3.33,11.43-6.25,17.37-9.43Z"/>
      <path class="cls-1" d="m655.19,456.15c6.35-1.18,11.99-2.07,17.56-3.3,17.34-3.82,34.81-7.18,51.93-11.82,19.94-5.41,39.57-11.96,59.33-18.04,19.99-6.15,38.95-14.74,57.59-24.13,18.43-9.29,35.56-20.57,51.22-33.97,9.75-8.34,18.96-17.31,28.46-25.95,15.66-14.25,27.75-31.26,37.91-49.65,3.38-6.12,5.42-12.98,8.15-19.7,6.24,6.13,11.32,13.5,15.03,21.92,4.28,9.71,6.77,19.92,6.67,30.39-.11,11.83-3.08,23.28-7.84,34.17-9.9,22.67-25.16,41.46-43.45,57.69-14.3,12.69-31.23,21.55-48.56,29.41-16.98,7.7-34.8,13.18-53.01,17-16.19,3.4-32.55,6.12-48.94,8.39-13.82,1.91-27.77,2.9-41.69,4.01-9.78.78-19.59,1.25-29.39,1.57-13.25.43-26.51.56-39.76.85-1.03.02-2.06.28-3.1.42-3.96.54-7.45.15-9.6-3.94-2.62-4.97-5.45-9.82-8.53-15.33Z"/>
      <path class="cls-1" d="m421.52,611.77c-10.83,2.34-21.18,4.34-31.41,6.83-21.07,5.13-42.25,9.92-63.04,16-18.58,5.43-36.81,12.1-54.98,18.81-9.69,3.58-18.9,8.45-28.38,12.61-21.55,9.47-40.37,23.22-58.45,37.91-10.95,8.9-21.36,18.6-31.17,28.75-13.76,14.24-25.83,29.93-34.79,47.72-2.8,5.57-4.66,11.61-7.06,17.7-.75-.49-1.82-.87-2.41-1.62-8.17-10.44-15.6-21.26-18.29-34.63-2.55-12.68-1.85-25.16,1.53-37.61,4.64-17.06,14.61-31.15,25.1-44.89,5.23-6.85,10.88-13.5,17.11-19.42,10.73-10.2,22.53-19.04,35.8-25.93,21.17-10.98,43.1-19.95,66.38-25.08,16.79-3.7,33.78-6.64,50.79-9.2,12.88-1.94,25.92-2.92,38.92-3.99,9.91-.82,19.85-1.23,29.79-1.6,16.77-.63,33.54-1.03,50.31-1.65,2.76-.1,3.99.8,5.22,3.41,2.5,5.28,5.77,10.2,9.06,15.86Z"/>
      <path class="cls-1" d="m528.16,21.58v5.53c0,120.95,0,241.9,0,362.84,0,5.49-.02,5.34-5.56,6.19-6.57,1.01-13.09,2.31-19.64,3.46-.87.15-1.75.21-2.8.33-.42-4.25-.96-8.24-1.19-12.25-.85-14.88-1.55-29.77-2.41-44.65-.7-12-1.12-24.03-2.45-35.96-1.83-16.44-3.87-32.88-6.75-49.16-4.83-27.28-13.81-53.4-24.19-79-5.4-13.34-11.59-26.36-17.71-39.4-2.26-4.81-5.1-9.4-8.08-13.81-2.21-3.26-1.88-6.15.09-9.09,6.67-9.98,12.95-20.27,20.28-29.74,7.35-9.5,15.2-18.78,23.88-27.05,10.39-9.89,21.85-18.65,32.93-27.8,4.1-3.39,8.44-6.49,13.6-10.44Z"/>
      <path class="cls-1" d="m500.35,668.1c9.04,1.3,18.17,2.62,27.95,4.03v368.69c-4.15-2.95-8.17-5.9-12.29-8.72-14.24-9.75-26.71-21.55-38.61-33.93-11.53-11.99-22.25-24.68-30.79-39.07-2.85-4.81-6.11-9.38-8.92-14.21-.77-1.33-1.29-3.54-.71-4.78,2.37-5.09,5.25-9.94,7.85-14.92,2.86-5.47,6.07-10.81,8.35-16.52,8.03-20.05,16.33-40.03,23.37-60.44,6.9-20,11.81-40.63,14.49-61.69,1.32-10.34,2.3-20.74,3.15-31.13.96-11.85,1.57-23.72,2.4-35.58,1.21-17.19,2.49-34.38,3.76-51.73Z"/>
      <path class="cls-1" d="m1055.51,543.86c-4.34,5.85-7.66,11.21-11.84,15.78-12.47,13.65-24.71,27.58-38.1,40.3-14.08,13.38-30.6,23.7-47.75,32.84-1.45.78-3.96.67-5.52-.04-6.54-2.96-12.76-6.64-19.36-9.44-19.05-8.07-38.09-16.23-57.4-23.64-21.65-8.31-44.2-13.68-66.97-17.87-11.39-2.1-23-3.18-34.56-4.16-16.02-1.36-32.08-2.2-48.13-3.24-12.39-.8-24.79-1.54-37.18-2.37-4.8-.32-9.58-.83-14.67-1.28,1.53-9.1,3.01-17.88,4.52-26.87h376.96Z"/>
      <path class="cls-1" d="m575.19,399.69c-8.34-1.26-16.21-2.38-24.03-3.72-.93-.16-1.92-1.44-2.38-2.44-.4-.87-.1-2.07-.1-3.12,0-120.83,0-241.66,0-362.49v-5.67c2.02,1.3,3.32,1.96,4.42,2.87,13.5,11.16,27.71,21.59,40.28,33.71,17.76,17.13,32.75,36.7,44.44,58.59,1.3,2.43,1.52,4.65.1,7.34-14.92,28.37-27.88,57.59-37.47,88.21-6.33,20.2-11.93,40.62-14.64,61.67-1.65,12.8-2.74,25.67-3.97,38.52-1.38,14.49-2.75,28.99-3.9,43.5-.75,9.51-1.08,19.06-1.66,28.58-.29,4.8-.73,9.59-1.11,14.45Z"/>
      <path class="cls-1" d="m674.3,496.49c6.76-.62,13.1-1.38,19.46-1.73,7.98-.45,15.99-.39,23.97-.88,9.38-.58,18.74-1.55,28.12-2.26,5.09-.39,10.19-.72,15.29-.83,19.93-.43,39.59-3.08,58.96-7.56,15.53-3.6,31.12-7.28,46.19-12.38,17.6-5.96,34.77-13.22,51.91-20.45,11.48-4.85,22.59-10.56,33.79-16.04,2.79-1.36,5.03-1.34,7.69.36,11.11,7.12,22.54,13.78,33.45,21.18,5.92,4.02,11.29,8.94,16.48,13.91,16.21,15.52,31.45,31.93,44.26,50.44.49.71.83,1.54,1.18,2.2-10.49,0-20.8,0-31.1,0-1.31,0-2.63-.13-3.94-.13-96.05,0-192.1-.04-288.16.03-16.02.01-32.04.52-48.06.74-5.35.07-5.9-.8-6.49-6-.61-5.43-1.83-10.79-2.71-16.19-.22-1.36-.19-2.75-.29-4.41Z"/>
      <path class="cls-1" d="m23.8,544.42h4.66c121.39,0,242.79,0,364.18,0,5.75,0,5.42.08,6.14,5.94.78,6.32,2.34,12.54,3.54,18.81.09.49.01,1.01.01,1.68-4.33.4-8.58.94-12.85,1.15-12.16.61-24.33.91-36.48,1.65-14.08.86-28.12,2.32-42.2,3.04-24.1,1.23-47.63,5.7-70.97,11.53-21.91,5.48-43.07,13.12-63.86,21.78-12.34,5.14-24.46,10.78-36.62,16.34-3.93,1.8-7.73,3.91-11.46,6.1-2.75,1.62-5.31,1.2-7.84-.15-17.7-9.5-34.16-20.65-48.97-34.38-12.53-11.62-24.05-24.06-34.78-37.31-3.61-4.45-7.29-8.84-10.89-13.3-.55-.67-.86-1.53-1.61-2.89Z"/>
      <path class="cls-1" d="m575.91,667.62c.42,5.99.8,11.58,1.19,17.17,1.04,14.98,2.05,29.96,3.13,44.94.75,10.47,1.49,20.95,2.42,31.4,2.1,23.56,5.58,46.94,12.61,69.55,6.06,19.46,12.42,38.89,20.09,57.76,6.94,17.07,15.88,33.33,23.74,50.04.76,1.6.85,4.16.1,5.73-6.51,13.65-14.83,26.21-24.53,37.76-11.46,13.65-23.55,26.73-37.81,37.64-8.91,6.82-17.44,14.13-26.81,21.76-.28-1.85-.54-2.79-.54-3.72-.02-27.08-.1-54.16.02-81.24.16-34.54.72-69.08.68-103.62-.06-58.47-.46-116.93-.72-175.4-.02-5.38.03-5.2,5.34-6.01,6.94-1.06,13.83-2.45,21.1-3.76Z"/>
      <path class="cls-1" d="m22.48,523.78c4.03-5.28,7.38-10.06,11.14-14.49,5.58-6.56,11.34-12.98,17.23-19.26,6.82-7.28,13.44-14.83,20.91-21.38,8.92-7.83,18.37-15.13,28.13-21.89,7.16-4.96,15.13-8.8,22.89-12.82,1.27-.66,3.65-.18,5.08.59,21.95,11.9,44.92,21.45,68.26,30.23,25.05,9.43,50.78,16.4,77.09,21.01,12.56,2.2,25.38,3,38.11,4.17,13.39,1.23,26.81,2.24,40.23,3.14,10.7.71,21.43,1.08,32.14,1.65,6.12.32,12.24.74,18.96,1.16-.62,3.23-1.3,6.33-1.81,9.47-.78,4.75-1.3,9.55-2.25,14.27-.24,1.19-1.54,2.89-2.57,3.06-2.81.46-5.73.31-8.6.24-1.95-.05-3.89-.55-5.83-.55-104.17-.03-208.33-.05-312.5,0-13.64,0-27.29.47-40.93.77-1.61.04-3.21.36-5.67.65Z"/>
    </g>
  </g>
</svg>