<?xml version="1.0" encoding="UTF-8"?>
<svg id="1" data-name="1" xmlns="http://www.w3.org/2000/svg" viewBox="0 0 480.96 513.12">
  <defs>
    <style>
      .cls-1 {
        fill: none;
      }
      .cls-2{
        fill: #eef0e0;
      }
    </style>
  </defs>
  <path class="cls-1" d="m0,0h480.96v513.12H0V0Zm2.73,93.1c-.14,2.9-.25,5.84-.43,8.77-.41,6.83-1.08,13.66-1.2,20.5-.15,8.54.06,17.08.28,25.62.16,5.89.53,11.77.95,17.65.37,5.16.89,10.31,1.41,15.45,1.32,13,3.38,25.89,5.87,38.72,3.57,18.41,8.25,36.54,13.98,54.39,6.26,19.48,13.81,38.44,22.75,56.84,6.91,14.22,14.66,27.98,23.21,41.3,12.93,20.14,27.61,38.91,44.28,56.06,7.22,7.43,14.78,14.57,22.59,21.39,21.87,19.08,45.89,35.06,71.86,48.03,9.2,4.59,18.72,8.53,28.02,12.93,3.08,1.46,5.67,1.64,8.93.13,10.55-4.9,21.3-9.39,31.62-14.8,13.24-6.93,26.05-14.54,38.37-23.01,15.75-10.83,30.51-22.87,44.2-36.2,6.8-6.62,13.36-13.53,19.66-20.63,13-14.64,24.61-30.36,35.03-46.94,9.74-15.5,18.38-31.58,25.94-48.25,8.62-18.98,15.81-38.5,21.65-58.5,6.87-23.52,11.93-47.42,15.12-71.73,1.72-13.11,3-26.26,3.53-39.46.41-10.29.18-20.62.06-30.92-.06-5.49-.5-10.97-.77-16.45-.18-3.58-.35-7.15-.53-10.78-.56-.26-1.04-.53-1.55-.73-4.75-1.87-9.5-3.75-14.26-5.6-17.99-6.98-35.98-13.95-53.97-20.93-15.38-5.98-30.76-11.99-46.14-17.96-22.38-8.68-44.77-17.34-67.14-26.02-17.54-6.81-35.08-13.62-52.61-20.48-1.83-.72-3.45-.7-5.27.04-6.06,2.45-12.17,4.77-18.26,7.13-18.73,7.28-37.46,14.57-56.18,21.85-16.13,6.27-32.26,12.54-48.39,18.79-18.29,7.09-36.58,14.16-54.87,21.24-12.79,4.95-25.59,9.9-38.37,14.88-6.39,2.49-12.75,5.04-19.37,7.65Z"/>
  <path class="cls-2" d="m2.73,93.1c6.62-2.62,12.98-5.17,19.37-7.65,12.78-4.98,25.58-9.92,38.37-14.88,18.29-7.08,36.58-14.16,54.87-21.24,16.13-6.26,32.26-12.52,48.39-18.79,18.73-7.28,37.46-14.56,56.18-21.85,6.09-2.37,12.21-4.68,18.26-7.13,1.82-.74,3.44-.76,5.27-.04,17.52,6.86,35.06,13.67,52.61,20.48,22.38,8.68,44.77,17.33,67.14,26.02,15.39,5.97,30.76,11.98,46.14,17.96,17.99,6.99,35.98,13.95,53.97,20.93,4.76,1.85,9.51,3.72,14.26,5.6.51.2.99.46,1.55.73.18,3.63.35,7.21.53,10.78.27,5.48.71,10.97.77,16.45.12,10.31.35,20.63-.06,30.92-.53,13.19-1.81,26.34-3.53,39.46-3.19,24.31-8.25,48.21-15.12,71.73-5.85,20-13.04,39.51-21.65,58.5-7.57,16.67-16.21,32.75-25.94,48.25-10.42,16.58-22.03,32.3-35.03,46.94-6.3,7.1-12.86,14-19.66,20.63-13.68,13.32-28.45,25.37-44.2,36.2-12.32,8.47-25.13,16.08-38.37,23.01-10.33,5.41-21.07,9.89-31.62,14.8-3.26,1.51-5.85,1.33-8.93-.13-9.29-4.41-18.82-8.34-28.02-12.93-25.97-12.96-49.98-28.94-71.86-48.03-7.81-6.81-15.37-13.96-22.59-21.39-16.67-17.15-31.35-35.92-44.28-56.06-8.55-13.31-16.3-27.07-23.21-41.3-8.94-18.4-16.49-37.36-22.75-56.84-5.74-17.86-10.41-35.98-13.98-54.39-2.49-12.83-4.55-25.72-5.87-38.72-.52-5.15-1.05-10.29-1.41-15.45-.42-5.88-.79-11.76-.95-17.65-.23-8.54-.43-17.08-.28-25.62.12-6.84.8-13.67,1.2-20.5.17-2.93.29-5.86.43-8.77Zm222.11,3.69v79.74H81.09v32.13h143.77v207.87c10.79.06,21.37.05,32.16.01v-207.92c24.09,0,47.96,0,71.83,0,23.94,0,47.87,0,71.83,0v-32.18h-143.83v-79.65h-32.01Z"/>
  <path class="cls-1" d="m224.84,96.79h32.01v79.65h143.83v32.18c-23.96,0-47.9,0-71.83,0-23.87,0-47.75,0-71.83,0v207.92c-10.79.04-21.37.05-32.16-.01v-207.87H81.09v-32.13h143.75v-79.74Z"/>
</svg>